<svg preserveAspectRatio="none" overflow="visible" style="display: block;" width="16" height="16" viewBox="0 0 16 16" fill="none" xmlns="http://www.w3.org/2000/svg">
<g id="IconGift1">
<path id="Vector" d="M8 5V3.88889M8 5H6.88887C5.66159 5 4.66667 4.00508 4.66667 2.77778C4.66667 2.16413 5.16413 1.66667 5.77778 1.66667C7.00507 1.66667 8 2.66159 8 3.88889M8 5H9.11113C10.3384 5 11.3333 4.00508 11.3333 2.77778C11.3333 2.16413 10.8359 1.66667 10.2222 1.66667C8.99493 1.66667 8 2.66159 8 3.88889M8 5H2.33333V7.66667H3M8 5H13.6667V7.66667H13M8 5V7.66667M3 7.66667V13.6667H8M3 7.66667V7.33333M3 7.66667H8M13 7.66667V13.6667H8M13 7.66667V7.33333M13 7.66667H8M8 7.66667V13.6667" stroke="#D9D9D9"/>
</g>
</svg>
